<?xml version="1.0" encoding="utf-8"?>
<!-- Generator: Adobe Illustrator 27.5.0, SVG Export Plug-In . SVG Version: 6.00 Build 0)  -->
<svg version="1.1" id="Capa_1" xmlns="http://www.w3.org/2000/svg" xmlns:xlink="http://www.w3.org/1999/xlink" x="0px" y="0px"
	 viewBox="0 0 2122 2122" style="enable-background:new 0 0 2122 2122;" xml:space="preserve">
<g>
	<rect x="0" style="fill:#FFFFFF;" width="2121.32" height="2120.376"/>
	<g>
		<g>
			<path style="fill:#00A190;" d="M287.469,1298.43c0,50.261,34.168,91.001,34.168,91.001s34.168-40.74,34.168-91.001
				c0-50.27-34.168-91.02-34.168-91.02S287.469,1248.16,287.469,1298.43z"/>
			<path style="fill:#00A190;" d="M245.116,1433.503c24.877,43.683,74.728,62.187,74.728,62.187s9.525-52.316-15.347-95.999
				c-24.872-43.673-74.728-62.177-74.728-62.177S220.244,1389.82,245.116,1433.503z"/>
			<path style="fill:#00A190;" d="M398.152,1457.434c-24.867,43.673-74.723,62.177-74.723,62.177s-9.529-52.316,15.347-95.999
				c24.867-43.673,74.728-62.177,74.728-62.177S423.029,1413.761,398.152,1457.434z"/>
			<path style="fill:#00A190;" d="M245.116,1606.87c24.877,43.683,74.728,62.187,74.728,62.187s9.525-52.316-15.347-95.999
				c-24.872-43.673-74.728-62.177-74.728-62.177S220.244,1563.197,245.116,1606.87z"/>
			<path style="fill:#00A190;" d="M398.152,1630.792c-24.867,43.683-74.723,62.187-74.723,62.187s-9.529-52.316,15.347-95.989
				c24.867-43.683,74.728-62.187,74.728-62.187S423.029,1587.129,398.152,1630.792z"/>
			<path style="fill:#00A190;" d="M245.116,1780.238c24.877,43.683,74.728,62.187,74.728,62.187s9.525-52.316-15.347-95.999
				c-24.872-43.673-74.728-62.187-74.728-62.187S220.244,1736.564,245.116,1780.238z"/>
			<path style="fill:#00A190;" d="M398.152,1804.16c-24.867,43.683-74.723,62.187-74.723,62.187s-9.529-52.316,15.347-95.989
				c24.867-43.683,74.728-62.187,74.728-62.187S423.029,1760.486,398.152,1804.16z"/>
			
				<line style="fill:none;stroke:#00A190;stroke-width:7.5929;stroke-miterlimit:10;" x1="321.636" y1="1374.141" x2="321.636" y2="1922.356"/>
		</g>
		<g>
			<path style="fill:#00A190;" d="M1269.51,1236.048c0,29.622,23.444,42.056,23.444,42.056s23.444-12.434,23.444-42.056
				c0-40.847-15.63-105.879-23.444-105.879C1285.145,1130.168,1269.51,1195.2,1269.51,1236.048z"/>
			<path style="fill:#00A190;" d="M1238.899,1327.584c20.248,29.495,53.885,29.495,53.885,29.495s3.201-38.109-18.451-78.976
				c-19.469-36.755-49.417-75.273-56.253-70.606C1211.24,1212.165,1203.733,1276.359,1238.899,1327.584z"/>
			<path style="fill:#00A190;" d="M1347.015,1353.533c-20.248,29.495-53.895,29.495-53.895,29.495s-3.196-38.119,18.456-78.976
				c19.478-36.765,49.412-75.283,56.252-70.616C1374.669,1238.114,1382.177,1302.298,1347.015,1353.533z"/>
			<path style="fill:#00A190;" d="M1238.899,1465.629c20.248,29.495,53.885,29.495,53.885,29.495s3.201-38.129-18.451-78.986
				c-19.469-36.755-49.417-75.264-56.253-70.606C1211.24,1350.2,1203.733,1414.395,1238.899,1465.629z"/>
			<path style="fill:#00A190;" d="M1347.015,1491.568c-20.248,29.495-53.895,29.495-53.895,29.495s-3.196-38.119,18.456-78.986
				c19.478-36.745,49.412-75.263,56.252-70.596C1374.669,1376.149,1382.177,1440.343,1347.015,1491.568z"/>
			<path style="fill:#00A190;" d="M1238.899,1800.973c20.248,29.495,53.885,29.495,53.885,29.495s3.201-38.109-18.451-78.976
				c-19.469-36.745-49.417-75.273-56.253-70.606C1211.24,1685.554,1203.733,1749.748,1238.899,1800.973z"/>
			<path style="fill:#00A190;" d="M1347.015,1826.931c-20.248,29.486-53.895,29.486-53.895,29.486s-3.196-38.119,18.456-78.976
				c19.478-36.755,49.412-75.273,56.252-70.606C1374.669,1711.503,1382.177,1775.697,1347.015,1826.931z"/>
			
				<line style="fill:none;stroke:#00A190;stroke-width:7.5929;stroke-miterlimit:10;" x1="1292.955" y1="1262.815" x2="1292.955" y2="1922.356"/>
			<g>
				<g>
					<path style="fill:#E75F73;" d="M1227.859,1540.094c2.777,8.263,21.31,43.137,28.886,40.604
						c7.601-2.553,1.354-41.549-1.418-49.812c-2.772-8.253-15.883-15.503-20.93-13.905
						C1229.364,1518.588,1225.087,1531.84,1227.859,1540.094z"/>
					<path style="fill:#E75F73;" d="M1213.496,1548.883c6.08,6.236,28.687,38.616,22.967,44.219
						c-5.725,5.593-37.598-17.734-43.683-23.951c-6.095-6.226-6.573-21.203-2.85-24.954
						C1193.657,1540.425,1207.396,1542.666,1213.496,1548.883z"/>
					<path style="fill:#EF7B7F;" d="M1205.462,1546.262c4.858,7.922,32.463,39.795,39.746,35.332
						c7.284-4.453-8.511-43.547-13.359-51.469c-4.853-7.942-18.09-8.867-21.978-6.295
						C1205.984,1526.403,1200.619,1538.33,1205.462,1546.262z"/>
					<path style="fill:#00A190;" d="M1209.891,1582.286c10.841,17.725,41.612,23.259,46.397,20.326
						c4.794-2.923,12.395-35.264,3.035-50.552l-1.013,8.244l-9.432-1.861l-4.643,10.475l-10.007-1.52l-2.928,9.433l-10.002-1.52
						l-1.203,8.37L1209.891,1582.286z"/>
				</g>
				<path style="fill:none;stroke:#00A190;stroke-width:7.5929;stroke-miterlimit:10;" d="M1236.712,1576.771
					c0,0,56.243,44.404,56.243,127.93"/>
			</g>
			<g>
				<g>
					<path style="fill:#E75F73;" d="M1358.056,1560.254c-2.782,8.253-21.316,43.137-28.896,40.604
						c-7.586-2.553-1.349-41.559,1.427-49.812c2.772-8.253,15.878-15.513,20.921-13.905
						C1356.545,1538.749,1360.822,1552.001,1358.056,1560.254z"/>
					<path style="fill:#E75F73;" d="M1372.423,1569.043c-6.09,6.227-28.696,38.616-22.972,44.209
						c5.715,5.603,37.593-17.725,43.683-23.942c6.085-6.236,6.568-21.203,2.85-24.964
						C1392.257,1560.586,1378.518,1562.817,1372.423,1569.043z"/>
					<path style="fill:#EF7B7F;" d="M1380.438,1566.413c-4.843,7.932-32.453,39.795-39.737,35.342
						c-7.283-4.453,8.512-43.556,13.36-51.478c4.848-7.931,18.085-8.857,21.973-6.285
						C1379.921,1546.564,1385.295,1558.491,1380.438,1566.413z"/>
					<path style="fill:#00A190;" d="M1376.023,1602.446c-10.84,17.725-41.612,23.259-46.402,20.327
						c-4.789-2.924-12.394-35.274-3.035-50.562l1.014,8.253l9.437-1.871l4.638,10.484l10.017-1.52l2.914,9.432l10.017-1.52
						l1.193,8.361L1376.023,1602.446z"/>
				</g>
				<path style="fill:none;stroke:#00A190;stroke-width:7.5929;stroke-miterlimit:10;" d="M1349.203,1596.931
					c0,0-56.248,44.404-56.248,127.921"/>
			</g>
		</g>
		<g>
			<g>
				
					<line style="fill:none;stroke:#00A190;stroke-width:7.5929;stroke-miterlimit:10;" x1="819.39" y1="1374.141" x2="819.39" y2="1922.356"/>
				
					<line style="fill:none;stroke:#00A190;stroke-width:7.5929;stroke-miterlimit:10;" x1="819.39" y1="1500.104" x2="763.464" y2="1388.241"/>
				
					<line style="fill:none;stroke:#00A190;stroke-width:7.5929;stroke-miterlimit:10;" x1="819.39" y1="1556.035" x2="875.331" y2="1444.172"/>
				
					<line style="fill:none;stroke:#00A190;stroke-width:7.5929;stroke-miterlimit:10;" x1="819.39" y1="1676.219" x2="763.464" y2="1564.357"/>
				
					<line style="fill:none;stroke:#00A190;stroke-width:7.5929;stroke-miterlimit:10;" x1="819.39" y1="1732.151" x2="875.331" y2="1620.288"/>
				
					<line style="fill:none;stroke:#00A190;stroke-width:7.5929;stroke-miterlimit:10;" x1="819.39" y1="1852.334" x2="763.464" y2="1740.472"/>
				
					<line style="fill:none;stroke:#00A190;stroke-width:7.5929;stroke-miterlimit:10;" x1="819.39" y1="1908.266" x2="875.331" y2="1796.403"/>
			</g>
			<path style="fill:#E8858C;" d="M799.693,1298.41c12.916-0.078,14.606,14.577,19.698,14.577c5.106,0,4.78-13.067,19.707-14.577
				c11.883-1.208,21.603,11.07,21.603,24.711c0,33.744-41.31,58.952-41.31,58.952s-41.305-27.439-41.305-58.952
				C778.085,1309.48,787.756,1298.488,799.693,1298.41z"/>
			<path style="fill:#E8858C;" d="M713.033,1352.519c9.432-6.675,18.177,3.216,21.919,0.614c3.737-2.612-3.186-12.034,6.987-20.784
				c8.107-6.977,21.515-2.943,28.502,7.064c17.271,24.75-0.122,64.38-0.122,64.38s-44.35,1.033-60.487-22.08
				C702.846,1371.705,704.312,1358.688,713.033,1352.519z"/>
			<path style="fill:#E8858C;" d="M740.487,1465.444c-0.653-8.419,8.799-10.182,8.56-13.515c-0.229-3.323-8.706-2.504-10.382-12.161
				c-1.335-7.688,6.192-14.587,15.059-15.22c21.929-1.549,40.214,24.195,40.214,24.195s-15.912,28.18-36.39,29.642
				C748.682,1479.018,741.091,1473.22,740.487,1465.444z"/>
			<path style="fill:#E8858C;" d="M710.519,1523.772c9.442-6.684,18.173,3.206,21.924,0.604c3.737-2.602-3.186-12.024,6.982-20.775
				c8.102-6.977,21.52-2.943,28.502,7.065c17.271,24.75-0.122,64.379-0.122,64.379s-44.346,1.023-60.477-22.08
				C700.341,1542.949,701.808,1529.94,710.519,1523.772z"/>
			<path style="fill:#E8858C;" d="M737.978,1634.281c-0.658-8.419,8.799-10.193,8.565-13.525
				c-0.234-3.313-8.711-2.504-10.382-12.161c-1.34-7.689,6.197-14.587,15.055-15.211c21.929-1.559,40.214,24.195,40.214,24.195
				s-15.917,28.18-36.39,29.632C746.173,1647.844,738.582,1642.046,737.978,1634.281z"/>
			<path style="fill:#E8858C;" d="M713.033,1702.304c9.432-6.675,18.177,3.215,21.919,0.604c3.737-2.612-3.186-12.024,6.987-20.775
				c8.107-6.977,21.515-2.953,28.502,7.064c17.271,24.74-0.122,64.379-0.122,64.379s-44.35,1.023-60.487-22.08
				C702.846,1721.481,704.312,1708.462,713.033,1702.304z"/>
			<path style="fill:#E8858C;" d="M740.487,1812.803c-0.653-8.409,8.799-10.182,8.56-13.505c-0.229-3.323-8.706-2.514-10.382-12.171
				c-1.335-7.678,6.192-14.587,15.059-15.211c21.929-1.559,40.214,24.195,40.214,24.195s-15.912,28.18-36.39,29.632
				C748.682,1826.376,741.091,1820.578,740.487,1812.803z"/>
			<path style="fill:#E8858C;" d="M931.793,1397.81c-9.447-6.675-18.177,3.215-21.924,0.604c-3.737-2.602,3.182-12.024-6.987-20.775
				c-8.102-6.967-21.52-2.952-28.502,7.074c-17.271,24.74,0.122,64.379,0.122,64.379s44.351,1.033,60.482-22.09
				C941.976,1416.996,940.505,1403.978,931.793,1397.81z"/>
			<path style="fill:#E8858C;" d="M904.33,1510.735c0.658-8.419-8.799-10.192-8.56-13.515c0.234-3.313,8.711-2.504,10.383-12.161
				c1.339-7.688-6.197-14.587-15.06-15.211c-21.919-1.559-40.199,24.185-40.199,24.185s15.902,28.19,36.375,29.632
				C896.135,1524.299,903.73,1518.51,904.33,1510.735z"/>
			<path style="fill:#E8858C;" d="M928.271,1579.694c-9.437-6.675-18.183,3.225-21.925,0.614
				c-3.742-2.611,3.182-12.024-6.986-20.774c-8.107-6.977-21.52-2.952-28.506,7.064c-17.267,24.75,0.127,64.379,0.127,64.379
				s44.35,1.023,60.487-22.09C938.449,1598.88,936.987,1585.862,928.271,1579.694z"/>
			<path style="fill:#E8858C;" d="M901.075,1690.202c0.653-8.409-8.799-10.182-8.565-13.506c0.224-3.323,8.706-2.514,10.378-12.17
				c1.335-7.688-6.188-14.597-15.06-15.211c-21.919-1.559-40.209,24.195-40.209,24.195s15.912,28.18,36.39,29.632
				C892.88,1703.776,900.471,1697.978,901.075,1690.202z"/>
			<path style="fill:#E8858C;" d="M928.271,1755.819c-9.437-6.675-18.183,3.216-21.925,0.604
				c-3.742-2.611,3.182-12.024-6.986-20.784c-8.107-6.957-21.52-2.943-28.506,7.074c-17.267,24.75,0.127,64.379,0.127,64.379
				s44.35,1.033,60.487-22.09C938.449,1775.005,936.987,1761.977,928.271,1755.819z"/>
			<path style="fill:#E8858C;" d="M901.075,1866.327c0.653-8.419-8.799-10.193-8.565-13.515c0.224-3.323,8.706-2.514,10.378-12.17
				c1.335-7.688-6.188-14.587-15.06-15.211c-21.919-1.559-40.209,24.195-40.209,24.195s15.912,28.18,36.39,29.632
				C892.88,1879.891,900.471,1874.093,901.075,1866.327z"/>
		</g>
		<g>
			<g>
				
					<line style="fill:none;stroke:#00A190;stroke-width:7.5929;stroke-miterlimit:10;" x1="1717.847" y1="1374.141" x2="1717.847" y2="1922.356"/>
				
					<line style="fill:none;stroke:#00A190;stroke-width:7.5929;stroke-miterlimit:10;" x1="1717.847" y1="1500.104" x2="1661.916" y2="1388.241"/>
				
					<line style="fill:none;stroke:#00A190;stroke-width:7.5929;stroke-miterlimit:10;" x1="1717.847" y1="1556.035" x2="1773.783" y2="1444.172"/>
				
					<line style="fill:none;stroke:#00A190;stroke-width:7.5929;stroke-miterlimit:10;" x1="1717.847" y1="1676.219" x2="1661.916" y2="1564.357"/>
				
					<line style="fill:none;stroke:#00A190;stroke-width:7.5929;stroke-miterlimit:10;" x1="1717.847" y1="1732.151" x2="1773.783" y2="1620.288"/>
				
					<line style="fill:none;stroke:#00A190;stroke-width:7.5929;stroke-miterlimit:10;" x1="1717.847" y1="1852.334" x2="1661.916" y2="1740.472"/>
				
					<line style="fill:none;stroke:#00A190;stroke-width:7.5929;stroke-miterlimit:10;" x1="1717.847" y1="1908.266" x2="1773.783" y2="1796.403"/>
			</g>
			<path style="fill:#00A190;" d="M1635.836,1414.668c20.243,29.505,53.885,29.505,53.885,29.505s3.192-38.119-18.455-78.976
				c-19.474-36.754-49.417-75.283-56.263-70.606C1608.172,1299.248,1600.664,1363.443,1635.836,1414.668z"/>
			<path style="fill:#00A190;" d="M1635.836,1583.611c20.243,29.505,53.885,29.505,53.885,29.505s3.192-38.119-18.455-78.986
				c-19.474-36.755-49.417-75.273-56.263-70.606C1608.172,1468.192,1600.664,1532.386,1635.836,1583.611z"/>
			<path style="fill:#00A190;" d="M1622.545,1740.764c20.243,29.496,53.885,29.496,53.885,29.496s3.196-38.119-18.455-78.986
				c-19.474-36.745-49.413-75.273-56.253-70.606C1594.886,1625.345,1587.383,1689.53,1622.545,1740.764z"/>
			<path style="fill:#00A190;" d="M1799.873,1461.692c-20.248,29.496-53.89,29.496-53.89,29.496s-3.191-38.119,18.456-78.976
				c19.474-36.755,49.412-75.273,56.253-70.616C1827.527,1346.274,1835.04,1410.458,1799.873,1461.692z"/>
			<path style="fill:#00A190;" d="M1799.873,1630.627c-20.248,29.505-53.89,29.505-53.89,29.505s-3.191-38.128,18.456-78.976
				c19.474-36.755,49.412-75.283,56.253-70.606C1827.527,1515.207,1835.04,1579.402,1799.873,1630.627z"/>
			<path style="fill:#00A190;" d="M1813.159,1787.78c-20.243,29.495-53.89,29.495-53.89,29.495s-3.196-38.119,18.456-78.976
				c19.479-36.755,49.412-75.283,56.257-70.606C1840.818,1672.351,1848.321,1736.545,1813.159,1787.78z"/>
			<path style="fill:#00A190;" d="M1688.128,1334.327c1.13,35.761,29.452,53.915,29.452,53.915s23.264-30.373,27.074-76.452
				c3.43-41.461-1.003-90.046-9.276-89.802C1727.094,1222.221,1686.15,1272.228,1688.128,1334.327z"/>
		</g>
		<g>
			<g>
				<path style="fill:#C73C63;" d="M901.512,501.778c-29.425-13.755-146.518-91.055-135.854-113.85
					c10.656-22.799,145.049,17.524,174.462,31.287c29.429,13.759,64.034,56.195,54.803,75.95
					C985.683,514.909,930.924,515.537,901.512,501.778z"/>
				<path style="fill:#C73C63;" d="M700.454,506.131c13.767-29.421,91.059-146.513,113.858-135.85
					c22.799,10.663-17.519,145.045-31.286,174.47c-13.759,29.421-56.195,64.029-75.939,54.794
					C687.34,590.31,686.707,535.552,700.454,506.131z"/>
				<path style="fill:#C73C63;" d="M897.159,300.733C883.4,330.158,806.1,447.251,783.301,436.587
					c-22.795-10.664,17.531-145.049,31.286-174.474c13.76-29.413,56.195-64.029,75.943-54.794
					C910.277,216.554,910.914,271.317,897.159,300.733z"/>
				<path style="fill:#C73C63;" d="M801.886,545.595c-11.074-30.535-39.216-167.984-15.557-176.563
					c23.663-8.582,90.183,114.96,101.252,145.487c11.07,30.527,5.539,85.019-14.953,92.447
					C852.125,614.399,812.964,576.126,801.886,545.595z"/>
				<path style="fill:#C73C63;" d="M795.735,261.27c11.073,30.538,39.216,167.988,15.55,176.574
					c-23.663,8.575-90.171-114.964-101.241-145.495c-11.077-30.531-5.547-85.014,14.949-92.447
					C745.493,192.469,784.658,230.743,795.735,261.27z"/>
				<path style="fill:#C73C63;" d="M656.65,406.514c30.531-11.078,167.988-39.22,176.571-15.558
					c8.574,23.659-114.965,90.171-145.495,101.249c-30.531,11.07-85.015,5.539-92.448-14.965
					C587.846,456.748,626.115,417.584,656.65,406.514z"/>
				<path style="fill:#C73C63;" d="M692.783,329.441c30.411,11.4,153.221,79.254,144.388,102.817
					c-8.845,23.572-145.98-6.068-176.396-17.467c-30.411-11.403-68.251-50.995-60.599-71.403
					C607.832,322.971,662.372,318.038,692.783,329.441z"/>
				<path style="fill:#C73C63;" d="M940.971,400.359c-30.531,11.077-167.992,39.212-176.567,15.558
					c-8.591-23.671,114.957-90.18,145.491-101.253c30.527-11.074,85.015-5.547,92.448,14.961
					C1009.776,350.116,971.506,389.289,940.971,400.359z"/>
				<path style="fill:#E24E74;" d="M913.329,453.585c-28.183,0-148.638-17.707-148.638-39.547
					c0-21.845,120.456-39.551,148.638-39.551c28.179,0,70.993,20.627,70.993,39.551C984.322,432.95,941.509,453.585,913.329,453.585
					z"/>
				<path style="fill:#E24E74;" d="M679.577,374.487c28.183,0,148.634,17.706,148.634,39.551c0,21.84-120.452,39.547-148.634,39.547
					c-28.183,0-70.989-20.635-70.989-39.547C608.588,395.114,651.394,374.487,679.577,374.487z"/>
				<path style="fill:#E24E74;" d="M756.904,530.912c0-28.187,17.706-148.63,39.551-148.63c21.841,0,39.551,120.443,39.551,148.63
					c0,28.179-20.63,70.989-39.551,70.989C777.535,601.901,756.904,559.091,756.904,530.912z"/>
				<path style="fill:#E24E74;" d="M836.006,297.16c0,28.179-17.71,148.638-39.551,148.638c-21.844,0-39.551-120.459-39.551-148.638
					c0-28.183,20.631-70.993,39.551-70.993C815.375,226.167,836.006,268.977,836.006,297.16z"/>
				<path style="fill:#E24E74;" d="M851.13,524.646c-19.927-19.931-92.583-117.626-77.133-133.065
					c15.442-15.446,113.142,57.21,133.069,77.136c19.927,19.923,35.611,64.781,22.226,78.159
					C915.919,560.254,871.061,544.568,851.13,524.646z"/>
				<path style="fill:#E24E74;" d="M741.772,303.427c19.927,19.927,92.583,117.618,77.136,133.065
					c-15.447,15.446-113.134-57.21-133.065-77.133c-19.927-19.931-35.616-64.79-22.231-78.163
					C676.986,267.819,721.845,283.5,741.772,303.427z"/>
				<path style="fill:#E24E74;" d="M685.844,468.717c19.931-19.927,117.618-92.583,133.065-77.136
					c15.446,15.438-57.21,113.134-77.136,133.065c-19.927,19.922-64.786,35.608-78.159,22.23
					C650.228,533.499,665.917,488.64,685.844,468.717z"/>
				<path style="fill:#E24E74;" d="M907.067,359.359c-19.935,19.922-117.627,92.579-133.069,77.133
					c-15.45-15.447,57.206-113.138,77.133-133.065c19.93-19.927,64.789-35.611,78.163-22.235
					C942.678,294.569,926.993,339.428,907.067,359.359z"/>
				<path style="fill:#FFFFFF;" d="M795.99,472.708c-33.809,0-61.212-27.407-61.212-61.204c0-33.805,27.403-61.208,61.212-61.208
					c33.798,0,61.205,27.404,61.205,61.208C857.194,445.301,829.787,472.708,795.99,472.708z"/>
			</g>
			<g>
				<path style="fill:#E24E74;" d="M449.852,453.927c-35.982,0-107.464-22.609-107.464-50.493
					c0-27.885,71.482-50.493,107.464-50.493c63.107,0,90.629,26.34,90.629,50.493C540.481,427.586,511.769,453.927,449.852,453.927z
					"/>
				<path style="fill:#721C45;" d="M401.408,408.559c-4.588,0-13.684-2.291-13.684-5.125c0-2.825,9.096-5.125,13.684-5.125
					c8.034,0,11.534,2.678,11.534,5.125C412.943,405.881,409.291,408.559,401.408,408.559z"/>
				<path style="fill:#E24E74;" d="M217.516,352.941c35.982,0,107.468,22.617,107.468,50.497c0,27.889-71.487,50.49-107.468,50.49
					c-63.106,0-90.633-26.333-90.633-50.49C126.883,379.282,155.6,352.941,217.516,352.941z"/>
				<path style="fill:#E24E74;" d="M349.865,529.067c-18.438-30.897-35.66-103.867-11.71-118.156
					c23.937-14.292,79.981,35.5,98.419,66.401c32.345,54.186,23.838,91.317,3.096,103.696
					C418.932,593.386,381.601,582.233,349.865,529.067z"/>
				<path style="fill:#E24E74;" d="M317.503,277.802c18.439,30.896,35.66,103.867,11.718,118.163
					c-23.941,14.289-79.993-35.504-98.431-66.413c-32.341-54.186-23.83-91.309-3.1-103.692
					C248.436,213.49,285.771,224.639,317.503,277.802z"/>
				<path style="fill:#E24E74;" d="M231.685,478.538c18.069-31.112,73.52-81.573,97.632-67.575
					c24.108,14.006,7.763,87.172-10.302,118.287c-31.685,54.576-68.283,65.152-89.169,53.023
					C208.961,570.149,200.597,532.083,231.685,478.538z"/>
				<path style="fill:#E24E74;" d="M435.683,328.328c-18.069,31.115-73.516,81.58-97.632,67.578
					c-24.117-14.002-7.767-87.171,10.302-118.287c31.688-54.576,68.279-65.152,89.169-53.02
					C458.411,236.724,466.767,274.778,435.683,328.328z"/>
				<path style="fill:#E98D9E;" d="M332.122,449.845c-25.633,0-46.406-20.778-46.406-46.411c0-25.636,20.774-46.411,46.406-46.411
					c25.632,0,46.411,20.775,46.411,46.411C378.533,429.067,357.755,449.845,332.122,449.845z"/>
				<path style="fill:#721C45;" d="M261.806,398.31c4.591,0,13.675,2.299,13.675,5.125c0,2.833-9.084,5.125-13.675,5.125
					c-8.034,0-11.536-2.678-11.536-5.125C250.271,400.987,253.928,398.31,261.806,398.31z"/>
				<path style="fill:#721C45;" d="M360.369,467.241c-2.184-4.035-4.5-13.122-2.013-14.471c2.486-1.349,8.837,5.551,11.026,9.585
					c3.823,7.063,3.147,11.419,0.995,12.586C368.224,476.106,364.129,474.168,360.369,467.241z"/>
				<path style="fill:#721C45;" d="M302.837,339.632c2.188,4.031,4.504,13.126,2.021,14.468c-2.487,1.348-8.845-5.551-11.029-9.586
					c-3.824-7.054-3.148-11.411-0.991-12.585C294.991,330.766,299.081,332.704,302.837,339.632z"/>
				<path style="fill:#721C45;" d="M372.238,346.447c-2.375,3.92-9.068,10.501-11.483,9.036c-2.419-1.476,0.346-10.437,2.725-14.356
					c4.174-6.868,8.28-8.471,10.374-7.198C375.943,335.203,376.337,339.719,372.238,346.447z"/>
				<path style="fill:#721C45;" d="M290.976,460.421c2.375-3.919,9.068-10.501,11.483-9.028c2.415,1.464-0.346,10.432-2.726,14.352
					c-4.178,6.86-8.288,8.467-10.373,7.198C287.268,471.666,286.882,467.162,290.976,460.421z"/>
				<path style="fill:#721C45;" d="M388.839,443.721c-3.935-2.364-10.552-9.001-9.103-11.432c1.456-2.427,10.441,0.282,14.376,2.646
					c6.887,4.126,8.519,8.225,7.257,10.325C400.103,447.362,395.599,447.772,388.839,443.721z"/>
				<path style="fill:#721C45;" d="M274.376,363.151c3.931,2.36,10.552,9,9.1,11.427c-1.452,2.427-10.433-0.278-14.372-2.638
					c-6.887-4.134-8.515-8.232-7.257-10.33C263.103,359.51,267.615,359.097,274.376,363.151z"/>
				<path style="fill:#721C45;" d="M323.472,472.951c0.199-4.588,2.881-13.573,5.705-13.449c2.829,0.127,4.727,9.306,4.533,13.89
					c-0.35,8.021-3.168,11.412-5.619,11.3C325.648,484.589,323.126,480.821,323.472,472.951z"/>
				<path style="fill:#721C45;" d="M339.742,333.922c-0.195,4.579-2.885,13.577-5.706,13.449c-2.829-0.119-4.73-9.318-4.535-13.895
					c0.35-8.021,3.175-11.407,5.622-11.3C337.566,322.287,340.08,326.043,339.742,333.922z"/>
				<path style="fill:#721C45;" d="M395.762,375.45c-4.058,2.141-13.182,4.353-14.499,1.85c-1.317-2.511,5.67-8.778,9.725-10.918
					c7.102-3.74,11.451-3,12.598-0.836C404.723,367.715,402.729,371.782,395.762,375.45z"/>
				<path style="fill:#721C45;" d="M267.452,431.418c4.063-2.141,13.178-4.341,14.496-1.838c1.317,2.503-5.663,8.766-9.717,10.906
					c-7.106,3.74-11.459,3.012-12.597,0.844C258.492,439.158,260.481,435.091,267.452,431.418z"/>
			</g>
			<g>
				<path style="fill:#7C5DA4;" d="M1432.413,470.178c-33.845,0-109.441-29.795-109.441-66.533
					c0-36.742,75.596-66.532,109.441-66.532c27.941,0,70.217,21.168,77.598,48.918c1.56,5.865-16.31,11.197-16.31,17.615
					c0,5.782,18.025,12.267,16.752,17.619C1503.61,449.901,1460.943,470.178,1432.413,470.178z"/>
				<path style="fill:#B8A9AF;" d="M1390.424,396.662c0,0,13.62-9.271,28.051-12.096c13.883-2.71,48.607,6.008,61.22,0
					c17.703-8.424,7.043-23.484-6.437-29.583c-12.351-5.583-31.561-10.393-45.623-9.49c-31.271,2.005-57.639,21.351-82.595,39.336
					c-30.67,22.087,17.531,49.805,37.732,56.708c28.983,9.9,59.235,8.881,88.6,1.608c15.944-3.959,26.424-8.133,19.767-26.938
					c-5.587-15.796-23.197-16.927-38.126-19.123C1438.247,394.907,1402.5,385.883,1390.424,396.662"/>
				<path style="fill:#7C5DA4;" d="M1170.634,346.471c33.734-2.825,111.542,20.559,114.606,57.173
					c3.064,36.611-69.792,72.596-103.521,75.414c-27.837,2.332-71.732-15.239-81.401-42.273
					c-2.045-5.717,15.323-12.517,14.786-18.912c-0.482-5.769-18.984-10.723-18.156-16.167
					C1101.379,372.601,1142.212,348.847,1170.634,346.471z"/>
				<path style="fill:#B8A9AF;" d="M1218.604,416.219c0,0-12.797,10.381-26.942,14.392c-13.613,3.859-48.946-1.93-61.014,5.101
					c-16.935,9.872-5.061,23.997,8.889,28.951c12.769,4.54,32.317,7.719,46.244,5.654c30.992-4.608,55.666-26.086,79.034-46.081
					c28.72-24.566-21.614-48.169-42.328-53.374c-29.699-7.445-59.769-3.907-88.421,5.794c-15.554,5.264-25.648,10.301-17.456,28.489
					c6.884,15.268,24.527,14.933,39.591,15.877C1171.095,421.953,1207.475,427.969,1218.604,416.219"/>
				<path style="fill:#7C5DA4;" d="M1191.563,487.82c13.011-31.246,69.585-89.57,103.493-75.437
					c33.921,14.125,32.341,95.364,19.322,126.607c-10.743,25.792-46.538,56.672-74.988,52.817
					c-6.012-0.816-4.063-19.362-9.991-21.825c-5.336-2.228-18.256,11.913-22.704,8.678
					C1182.892,561.332,1180.589,514.145,1191.563,487.82z"/>
				<path style="fill:#B8A9AF;" d="M1275.563,477.324c0,0,3.327,16.139,0.378,30.547c-2.833,13.859-24.231,42.563-23.543,56.513
					c0.975,19.58,18.972,15.53,29.787,5.431c9.911-9.243,21.737-25.131,26.301-38.453c10.178-29.639,2.463-61.431-4.536-91.381
					c-8.599-36.801-52.717-2.969-66.862,13.031c-20.281,22.939-30.98,51.261-35.557,81.167c-2.479,16.227-2.65,27.507,17.261,28.601
					c16.731,0.915,24.546-14.902,32.317-27.845C1258.792,522.143,1280.871,492.618,1275.563,477.324"/>
				<path style="fill:#7C5DA4;" d="M1423.258,333.826c-20.074,27.248-88.878,70.443-118.466,48.663
					c-29.588-21.793-8.738-100.318,11.34-127.574c16.568-22.497,58.682-43.983,85.397-33.471c5.655,2.224-0.649,19.775,4.512,23.579
					c4.656,3.43,20.567-7.238,24.121-3.036C1449.161,264.473,1440.169,310.86,1423.258,333.826z"/>
				<path style="fill:#B8A9AF;" d="M1339.171,324.046c0,0,0.609-16.473,6.899-29.763c6.052-12.789,33.663-35.58,36.304-49.295
					c3.72-19.251-14.734-19.597-27.638-12.359c-11.825,6.624-27.089,19.246-34.701,31.095
					c-16.923,26.365-16.986,59.084-17.309,89.841c-0.406,37.788,50.497,15.418,68.037,3.243
					c25.159-17.463,42.284-42.424,53.839-70.388c6.267-15.176,9.116-26.09-9.972-31.883c-16.027-4.866-27.383,8.638-38.007,19.349
					C1366.12,284.495,1337.655,307.923,1339.171,324.046"/>
				<path style="fill:#7C5DA4;" d="M1312.182,549.367c-17.775-28.811-32.099-108.789-0.828-128.075
					c31.275-19.29,96.311,29.417,114.077,58.228c14.667,23.775,18.844,70.874-0.896,91.723c-4.174,4.409-18.092-8.005-23.559-4.635
					c-4.922,3.04-0.978,21.785-6.207,23.504C1366.813,599.319,1327.15,573.643,1312.182,549.367z"/>
				<path style="fill:#B8A9AF;" d="M1352.703,475.032c0,0,15.04,6.724,25.02,17.535c9.601,10.397,20.412,44.517,32.142,52.104
					c16.461,10.636,23.683-6.334,21.793-21.017c-1.723-13.441-7.715-32.313-15.857-43.8c-18.128-25.561-48.44-37.86-76.842-49.661
					c-34.903-14.504-33.196,41.07-28.458,61.884c6.784,29.862,23.528,55.085,45.138,76.253
					c11.734,11.495,20.794,18.223,33.304,2.686c10.508-13.043,2.224-28.629-3.741-42.495
					C1379.299,514.821,1368.217,479.647,1352.703,475.032"/>
				<path style="fill:#7C5DA4;" d="M1297.228,259.157c17.038,29.245,29.361,109.561-2.387,128.051
					c-31.752,18.503-95.535-31.823-112.581-61.065c-14.061-24.148-17.062-71.327,3.2-91.671c4.281-4.305,17.885,8.443,23.432,5.217
					c5.001-2.909,1.528-21.753,6.788-23.333C1243.866,207.844,1282.872,234.511,1297.228,259.157z"/>
				<path style="fill:#B8A9AF;" d="M1254.852,332.441c0,0-14.869-7.098-24.57-18.144c-9.335-10.635-19.286-45.026-30.825-52.896
					c-16.186-11.058-23.834,5.737-22.322,20.456c1.392,13.485,6.915,32.504,14.77,44.186c17.471,26.015,47.469,39.062,75.569,51.572
					c34.525,15.379,34.207-40.219,30.001-61.153c-6.036-30.026-22.147-55.65-43.216-77.355
					c-11.44-11.786-20.333-18.737-33.221-3.521c-10.838,12.776-2.952,28.565,2.67,42.567
					C1229.26,292.003,1239.462,327.436,1254.852,332.441"/>
				<path style="fill:#F39200;" d="M1307.959,440.152c-20.153,0-36.495-16.345-36.495-36.507c0-20.165,16.342-36.503,36.495-36.503
					c20.161,0,36.507,16.338,36.507,36.503C1344.467,423.807,1328.121,440.152,1307.959,440.152z"/>
				<path style="fill:#F9B000;" d="M1317.744,431.319c1.954,0,1.404-4.914,3.008-5.344c2.359-0.629,5.439,3.128,6.855,2.276
					c2.376-1.416-2.041-6.765,0.366-9.538c2.408-2.785,4.588-0.219,5.802-2.785c1.225-2.559-4.397-2.348-5.4-5.98
					c-1.007-3.629,3.816-5.511,3.108-7.246c-0.701-1.727-4.835,1.564-6.781,0.771c-1.946-0.791-1.384-4.106-1.313-6.35
					c-0.024-0.62-0.9-1.002-1.181-0.346c-0.8,1.87-1.978,5.901-5.077,6.259c-3.104,0.358-4.843-2.423-6.474-3.923
					c-0.39-0.358-1.185-0.302-1.285,0.354c-0.426,2.972,1.652,5.782-0.462,8.626c-2.105,2.853-6.048,3.164-7.289,5.929
					c-0.263,0.577,0.059,1.194,0.664,1.229c12.426,0.887,2.857,5.928,3.613,11.368c0.195,1.388,4.627-3.151,8.83-1.07
					C1315.591,425.975,1315.778,431.319,1317.744,431.319z"/>
			</g>
			<g>
				<path style="fill:#E8858C;" d="M1827.25,237.422c17.289,42.328-27.582,159.358-51.906,158.359
					c-24.32-1.003-56.541-129.535-36.173-161.984c16.704-26.603,44.047-29.094,44.047-29.094S1815.377,208.351,1827.25,237.422z"/>
				<path style="fill:#E8858C;" d="M1736.593,585.577c-17.292-42.324,27.587-159.362,51.906-158.355
					c24.32,0.999,56.541,129.532,36.173,161.976c-16.704,26.599-44.043,29.102-44.043,29.102S1748.466,614.656,1736.593,585.577z"/>
				<path style="fill:#E8858C;" d="M1941.649,328.771c-19.899,41.158-136.912,86.077-152.443,67.324
					c-15.518-18.753,58.476-128.664,96.224-135.233c30.948-5.376,51.094,13.282,51.094,13.282S1955.321,300.496,1941.649,328.771z"
					/>
				<path style="fill:#E8858C;" d="M1622.19,494.233c19.903-41.163,136.928-86.077,152.434-67.325
					c15.534,18.745-58.467,128.664-96.215,135.23c-30.937,5.371-51.09-13.286-51.09-13.286S1608.522,522.511,1622.19,494.233z"/>
				<path style="fill:#E8858C;" d="M1952.178,469.554c-43.486,14.121-156.883-39.276-154.094-63.453
					c2.793-24.184,133.359-46.824,164.212-24.117c25.294,18.614,25.76,46.065,25.76,46.065S1982.048,459.854,1952.178,469.554z"/>
				<path style="fill:#E8858C;" d="M1611.665,353.445c43.482-14.122,156.891,39.276,154.094,63.452
					c-2.793,24.18-133.351,46.829-164.212,24.116c-25.294-18.617-25.76-46.068-25.76-46.068S1581.795,363.141,1611.665,353.445z"/>
				<path style="fill:#E8858C;" d="M1694.627,254.217c41.719,18.713,89.984,134.386,71.685,150.445
					c-18.295,16.055-130.296-54.755-137.939-92.296c-6.271-30.777,11.806-51.448,11.806-51.448S1665.967,241.364,1694.627,254.217z"
					/>
				<path style="fill:#E8858C;" d="M1869.216,568.782c-41.719-18.705-89.984-134.385-71.689-150.441
					c18.296-16.052,130.295,54.755,137.947,92.296c6.263,30.774-11.805,51.444-11.805,51.444S1897.869,581.631,1869.216,568.782z"/>
				<path style="fill:#CD5867;" d="M1814.776,407.738c0,18.148-14.702,32.854-32.855,32.854c-18.144,0-32.854-14.706-32.854-32.854
					c0-18.148,14.71-32.854,32.854-32.854C1800.074,374.883,1814.776,389.589,1814.776,407.738z"/>
				<path style="fill:#CD5867;" d="M1789.597,336.092c0,4.237-3.437,7.675-7.676,7.675c-4.242,0-7.675-3.438-7.675-7.675
					c0-4.242,3.433-7.676,7.675-7.676C1786.159,328.417,1789.597,331.851,1789.597,336.092z"/>
				<path style="fill:#CD5867;" d="M1789.597,479.574c0,4.234-3.437,7.671-7.676,7.671c-4.242,0-7.675-3.437-7.675-7.671
					c0-4.242,3.433-7.676,7.675-7.676C1786.159,471.898,1789.597,475.332,1789.597,479.574z"/>
				
					<line style="fill:none;stroke:#CD5867;stroke-width:7.6358;stroke-miterlimit:10;" x1="1781.921" y1="479.574" x2="1781.921" y2="336.092"/>
				<path style="fill:#CD5867;" d="M1853.662,415.5c-4.238,0-7.675-3.433-7.675-7.667c0-4.238,3.438-7.676,7.675-7.676
					c4.238,0,7.672,3.438,7.672,7.676C1861.334,412.067,1857.9,415.5,1853.662,415.5z"/>
				<path style="fill:#CD5867;" d="M1710.181,415.5c-4.238,0-7.672-3.433-7.672-7.667c0-4.238,3.434-7.676,7.672-7.676
					c4.238,0,7.672,3.438,7.672,7.676C1717.852,412.067,1714.418,415.5,1710.181,415.5z"/>
				
					<line style="fill:none;stroke:#CD5867;stroke-width:7.6358;stroke-miterlimit:10;" x1="1710.181" y1="407.833" x2="1853.662" y2="407.833"/>
				<path style="fill:#CD5867;" d="M1838.073,362.529c-2.992,2.992-7.851,2.992-10.851,0c-2.992-2.996-2.992-7.855,0-10.851
					c3-2.996,7.859-2.996,10.855,0C1841.077,354.67,1841.077,359.528,1838.073,362.529z"/>
				<path style="fill:#CD5867;" d="M1736.617,463.988c-2.996,2.992-7.854,2.992-10.851,0c-2.996-3-2.996-7.859,0-10.854
					c2.996-3,7.855-3,10.855-0.004C1739.617,456.13,1739.617,460.988,1736.617,463.988z"/>
				
					<line style="fill:none;stroke:#CD5867;stroke-width:7.6358;stroke-miterlimit:10;" x1="1731.194" y1="458.557" x2="1832.653" y2="357.101"/>
				<path style="fill:#CD5867;" d="M1736.621,351.678c2.996,2.996,2.996,7.854,0,10.851c-3,3-7.859,2.992-10.851,0
					c-3-2.996-3-7.859-0.004-10.851C1728.762,348.682,1733.621,348.682,1736.621,351.678z"/>
				<path style="fill:#CD5867;" d="M1838.077,453.134c3,2.996,3,7.854,0,10.854c-2.996,2.992-7.855,2.992-10.851,0
					c-2.996-3-2.996-7.859-0.005-10.854C1830.222,450.133,1835.08,450.133,1838.077,453.134z"/>
				
					<line style="fill:none;stroke:#CD5867;stroke-width:7.6358;stroke-miterlimit:10;" x1="1832.653" y1="458.557" x2="1731.194" y2="357.101"/>
			</g>
		</g>
		<g>
			<path style="fill:#E7786D;" d="M427.974,758.933c-10.014,24.631-68.258,123.594-87.341,115.837s8.217-119.296,18.219-143.918
				c10.01-24.631,43.24-54.707,59.765-47.991C435.151,689.577,437.98,734.311,427.974,758.933z"/>
			<path style="fill:#E7786D;" d="M248.329,1002.83c10.006-24.622,68.254-123.594,87.329-115.833
				c19.095,7.756-8.209,119.292-18.215,143.918c-10.007,24.623-43.237,54.707-59.762,47.987
				C241.152,1072.186,238.319,1027.457,248.329,1002.83z"/>
			<path style="fill:#E7786D;" d="M460.098,970.707c-24.627-10.01-123.594-68.258-115.833-87.345
				c7.748-19.078,119.296,8.221,143.914,18.224c24.627,10.014,54.707,43.241,47.987,59.769
				C529.45,977.883,484.721,980.709,460.098,970.707z"/>
			<path style="fill:#E7786D;" d="M216.2,791.061c24.627,10.006,123.602,68.25,115.838,87.332
				c-7.765,19.087-119.292-8.209-143.927-18.219c-24.627-10.002-54.698-43.233-47.983-59.765
				C146.845,783.88,191.574,781.051,216.2,791.061z"/>
			<path style="fill:#E7786D;" d="M487.316,854.622c-24.24,10.907-134.69,42.332-143.149,23.557
				c-8.46-18.795,88.274-80.67,112.51-91.585c24.24-10.915,69.048-9.751,76.368,6.523
				C540.378,809.391,511.548,843.703,487.316,854.622z"/>
			<path style="fill:#E7786D;" d="M188.992,907.141c24.232-10.911,134.681-42.336,143.141-23.549
				c8.459,18.779-88.279,80.661-112.51,91.576c-24.24,10.915-69.044,9.752-76.372-6.518
				C135.917,952.381,164.755,918.052,188.992,907.141z"/>
			<path style="fill:#E7786D;" d="M364.409,1030.044c-10.911-24.236-42.34-134.685-23.545-143.141
				c18.774-8.459,80.658,88.27,91.572,112.51c10.919,24.236,9.747,69.035-6.519,76.368
				C409.644,1083.106,375.319,1054.28,364.409,1030.044z"/>
			<path style="fill:#E7786D;" d="M311.886,731.719c10.911,24.236,42.34,134.686,23.557,143.149
				c-18.787,8.456-80.666-88.278-91.581-112.518c-10.915-24.232-9.747-69.04,6.519-76.365
				C266.655,678.654,300.975,707.487,311.886,731.719z"/>
			<path style="fill:#E8867D;" d="M375.452,734.084c0,26.584-16.698,140.197-37.302,140.197
				c-20.605,0-37.302-113.613-37.302-140.197c0-26.576,19.457-66.95,37.302-66.95C355.99,667.134,375.452,707.508,375.452,734.084z"
				/>
			<path style="fill:#E8867D;" d="M300.847,1027.671c0-26.584,16.698-140.192,37.302-140.192
				c20.604,0,37.302,113.608,37.302,140.192c0,26.576-19.462,66.958-37.302,66.958
				C320.304,1094.629,300.847,1054.247,300.847,1027.671z"/>
			<path style="fill:#E8867D;" d="M484.938,918.183c-26.584,0-140.188-16.701-140.188-37.302
				c0-20.605,113.604-37.306,140.188-37.306c26.58,0,66.963,19.461,66.963,37.306C551.901,898.727,511.519,918.183,484.938,918.183z
				"/>
			<path style="fill:#E8867D;" d="M191.36,843.576c26.584,0,140.189,16.702,140.189,37.306c0,20.601-113.604,37.302-140.189,37.302
				c-26.584,0-66.955-19.457-66.955-37.302C124.405,863.037,164.776,843.576,191.36,843.576z"/>
			<path style="fill:#E8867D;" d="M466.452,800.396c-18.347,19.231-108.842,89.928-123.746,75.714
				c-14.913-14.222,51.408-107.969,69.755-127.201c18.342-19.234,60.292-35.023,73.206-22.71
				C498.576,738.513,484.795,781.162,466.452,800.396z"/>
			<path style="fill:#E8867D;" d="M209.85,961.371c18.343-19.244,108.838-89.932,123.746-75.714
				c14.908,14.217-51.413,107.961-69.755,127.196c-18.346,19.238-60.292,35.028-73.21,22.718
				C177.722,1023.254,191.504,980.602,209.85,961.371z"/>
			<path style="fill:#E8867D;" d="M418.634,1009.185c-19.239-18.347-89.928-108.842-75.71-123.746
				c14.218-14.909,107.958,51.408,127.201,69.755c19.231,18.342,35.023,60.287,22.71,73.206
				C480.518,1041.308,437.869,1027.527,418.634,1009.185z"/>
			<path style="fill:#E8867D;" d="M257.66,752.578c19.234,18.352,89.932,108.838,75.714,123.746
				c-14.218,14.912-107.962-51.409-127.197-69.755c-19.239-18.343-35.027-60.296-22.714-73.202
				C195.781,720.447,238.425,734.236,257.66,752.578z"/>
			<path style="fill:#FFFFFF;" d="M368.492,887.479c0,16.759-13.58,30.347-30.343,30.347c-16.759,0-30.352-13.588-30.352-30.347
				c0-16.76,13.592-30.348,30.352-30.348C354.912,857.131,368.492,870.719,368.492,887.479z"/>
		</g>
		<g>
			<path style="fill:#FACB56;" d="M858.435,739.583c0,26.584-20.378,140.197-45.507,140.197
				c-25.132,0-45.507-113.613-45.507-140.197c0-45.511,23.734-66.95,45.507-66.95C834.697,672.632,858.435,696.716,858.435,739.583z
				"/>
			<path style="fill:#FACB56;" d="M767.422,1033.169c0-26.58,20.375-140.193,45.507-140.193c25.128,0,45.507,113.612,45.507,140.193
				c0,45.511-23.738,66.958-45.507,66.958C791.156,1100.128,767.422,1076.044,767.422,1033.169z"/>
			<path style="fill:#FACB56;" d="M959.722,931.882c-26.584,0-140.197-20.37-140.197-45.502c0-25.128,113.612-45.507,140.197-45.507
				c45.507,0,66.95,23.738,66.95,45.507C1026.672,908.148,1002.589,931.882,959.722,931.882z"/>
			<path style="fill:#FACB56;" d="M666.136,840.874c26.584,0,140.197,20.378,140.197,45.507c0,25.132-113.612,45.502-140.197,45.502
				c-45.507,0-66.958-23.734-66.958-45.502C599.177,864.612,623.269,840.874,666.136,840.874z"/>
			<path style="fill:#FACB56;" d="M948.902,814.758c-18.795,18.799-113.542,84.721-131.309,66.958
				c-17.766-17.771,48.164-112.514,66.954-131.313c32.182-32.182,64.129-30.557,79.523-15.164
				C979.463,750.629,979.216,784.444,948.902,814.758z"/>
			<path style="fill:#FACB56;" d="M676.956,957.998c18.795-18.79,113.534-84.725,131.305-66.954
				c17.771,17.771-48.155,112.514-66.95,131.309c-32.182,32.181-64.133,30.565-79.523,15.167
				C646.391,1022.127,646.637,988.316,676.956,957.998z"/>
			<path style="fill:#FACB56;" d="M884.547,1022.353c-18.791-18.795-84.721-113.539-66.954-131.309
				c17.771-17.771,112.514,48.163,131.309,66.954c32.182,32.182,30.562,64.13,15.168,79.522
				C948.676,1052.918,914.861,1052.672,884.547,1022.353z"/>
			<path style="fill:#FACB56;" d="M741.311,750.403c18.794,18.799,84.721,113.542,66.95,131.313
				c-17.767,17.767-112.51-48.159-131.305-66.958c-32.182-32.182-30.565-64.129-15.167-79.518
				C677.178,719.842,710.992,720.088,741.311,750.403z"/>
			<path style="fill:#F7AB64;" d="M843.276,886.38c0,16.763-13.593,30.347-30.348,30.347c-16.759,0-30.352-13.584-30.352-30.347
				c0-16.759,13.592-30.347,30.352-30.347C829.684,856.033,843.276,869.621,843.276,886.38z"/>
		</g>
		<g>
			<path style="fill:#E85499;" d="M1344.375,735.54c2.311,26.181-12.149,136.409-36.989,136.409
				c-24.849,0-36.068-107.513-36.068-133.802c0-19.622,14.542-71.013,36.068-71.013
				C1328.911,667.134,1342.056,709.396,1344.375,735.54z"/>
			<path style="fill:#E85499;" d="M1271.564,1026.223c-2.319-26.181,12.136-136.405,36.985-136.405
				c24.849,0,36.072,107.517,36.072,133.793c0,19.626-14.551,71.017-36.072,71.017
				C1287.024,1094.629,1273.871,1052.371,1271.564,1026.223z"/>
			<path style="fill:#E85499;" d="M1453.303,917.287c-26.173,2.315-136.405-12.141-136.405-36.989
				c0-24.841,107.522-36.064,133.801-36.064c19.622,0,71.013,14.542,71.013,36.064
				C1521.713,901.819,1479.46,914.976,1453.303,917.287z"/>
			<path style="fill:#E85499;" d="M1162.628,844.48c26.181-2.323,136.409,12.137,136.409,36.981
				c0,24.853-107.521,36.072-133.801,36.072c-19.621,0-71.017-14.542-71.017-36.072
				C1094.218,859.944,1136.48,846.788,1162.628,844.48z"/>
			<path style="fill:#E85499;" d="M1230.939,752.361c20.144,16.878,87.867,105.05,70.298,122.619
				c-17.565,17.569-101.529-50.528-120.119-69.109c-13.867-13.872-39.925-60.498-24.701-75.723
				C1171.635,714.932,1210.812,735.511,1230.939,752.361z"/>
			<path style="fill:#E85499;" d="M1384.996,1009.398c-20.148-16.878-87.867-105.042-70.298-122.611
				c17.573-17.569,101.529,50.524,120.11,69.109c13.872,13.876,39.938,60.493,24.713,75.722
				C1444.301,1046.836,1405.119,1026.252,1384.996,1009.398z"/>
			<path style="fill:#E85499;" d="M1436.482,803.851c-16.879,20.148-105.042,87.876-122.611,70.306
				c-17.574-17.573,50.524-101.534,69.113-120.115c13.876-13.88,60.494-39.934,75.714-24.709
				C1473.92,744.551,1453.34,783.728,1436.482,803.851z"/>
			<path style="fill:#E85499;" d="M1179.448,957.907c16.875-20.148,105.046-87.863,122.607-70.297
				c17.578,17.569-50.52,101.529-69.101,120.111c-13.876,13.876-60.493,39.934-75.722,24.721
				C1142.016,1017.216,1162.599,978.035,1179.448,957.907z"/>
			<path style="fill:#F39E9E;" d="M1337.388,880.886c0,16.566-13.428,30.002-30.002,30.002c-16.574,0-30.006-13.436-30.006-30.002
				c0-16.574,13.432-30.01,30.006-30.01C1323.96,850.876,1337.388,864.311,1337.388,880.886z"/>
		</g>
		<g>
			<path style="fill:#E24E74;" d="M1834.095,686.477c17.219,42.163-27.481,189.52-51.704,188.521
				c-24.228-0.991-56.319-159.81-36.027-192.132c16.627-26.494,43.861,1.806,43.861,1.806S1822.267,657.516,1834.095,686.477z"/>
			<path style="fill:#E24E74;" d="M1729.744,1086.282c-17.22-42.159,27.481-189.52,51.708-188.517
				c24.219,0.995,56.315,159.801,36.023,192.127c-16.636,26.498-43.866-1.806-43.866-1.806S1741.576,1115.239,1729.744,1086.282z"/>
			<path style="fill:#E24E74;" d="M1959.292,780.443c-17.289,42.13-152.489,115.85-169.059,98.149
				c-16.574-17.693,71.914-153.424,109.043-162.241c30.434-7.23,30.006,32.042,30.006,32.042S1971.158,751.502,1959.292,780.443z"/>
			<path style="fill:#E24E74;" d="M1604.551,992.323c17.277-42.143,152.481-115.862,169.059-98.157
				c16.566,17.693-71.919,153.427-109.048,162.241c-30.433,7.23-30.006-32.046-30.006-32.046S1592.673,1021.252,1604.551,992.323z"
				/>
			<path style="fill:#E24E74;" d="M1888.284,1063.489c-42.176-17.175-116.22-152.202-98.565-168.813
				c17.656-16.619,153.6,71.544,162.512,108.648c7.3,30.417-31.972,30.089-31.972,30.089S1917.249,1075.296,1888.284,1063.489z"/>
			<path style="fill:#E24E74;" d="M1675.56,709.265c42.167,17.179,116.212,152.202,98.556,168.821
				c-17.66,16.611-153.608-71.544-162.512-108.649c-7.3-30.421,31.976-30.084,31.976-30.084S1646.586,697.466,1675.56,709.265z"/>
			<path style="fill:#E24E74;" d="M1984.602,926.401c-41.04,19.736-190.828-15.998-191.297-40.238
				c-0.469-24.244,156.125-65.852,189.615-47.547c27.443,15.003,0.843,43.891,0.843,43.891S2012.786,912.85,1984.602,926.401z"/>
			<path style="fill:#E24E74;" d="M1579.237,846.352c41.04-19.728,190.828,16.002,191.297,40.246
				c0.465,24.241-156.133,65.848-189.614,47.543c-27.448-15.003-0.839-43.89-0.839-43.89S1551.045,859.912,1579.237,846.352z"/>
			<path style="fill:#FBE3F0;" d="M1805.405,886.916c0,14.518-11.779,26.292-26.296,26.292c-14.522,0-26.297-11.775-26.297-26.292
				c0-14.521,11.775-26.304,26.297-26.304C1793.626,860.611,1805.405,872.394,1805.405,886.916z"/>
		</g>
	</g>
</g>
</svg>
